<svg width="205" height="80" viewBox="0 0 205 80" fill="none" xmlns="http://www.w3.org/2000/svg">
    <path d="M200.785 50.867H189.744C189.846 46.3348 190.421 43.5211 191.983 42.1676C193.078 41.2284 194.485 40.97 195.839 40.97C196.983 40.97 198.078 41.2325 198.964 42.1676C200.264 43.5211 200.683 46.3348 200.785 50.867ZM204.952 50.9203C204.952 47.0115 202.348 40.7649 195.839 40.7649C189.846 40.7649 185.368 45.9739 185.368 52.3804C185.368 58.787 189.846 63.8934 195.839 63.8934C199.485 63.8934 202.454 61.9657 204.382 58.9962C204.436 58.8936 204.28 58.8403 204.226 58.8936C202.401 61.7606 199.538 63.7375 195.839 63.7375C194.485 63.7375 193.078 63.4258 191.983 62.5399C190.265 61.0305 189.691 58.6311 189.691 52.3845C189.691 51.9169 189.691 51.4986 189.744 51.0802H204.796C204.899 51.0802 204.952 51.0269 204.952 50.9244M194.69 28.5793C194.69 26.3932 193.337 24.7239 189.535 24.7239C184.482 24.7239 180.315 30.0887 177.763 37.8488C177.452 38.8372 177.087 39.9856 176.775 41.2858H171.357C171.254 41.2858 171.201 41.4417 171.304 41.4417H176.722C174.482 49.4109 171.878 61.2889 169.638 68.4255C167.034 76.7065 166.148 79.676 163.543 79.676C162.448 79.676 162.137 79.0526 162.137 78.0108C162.137 77.2274 163.023 76.2389 163.023 75.0946C163.023 74.1553 162.448 73.3761 160.992 73.3761C159.639 73.3761 158.544 74.3645 158.544 76.0338C158.544 78.5358 160.525 79.8893 163.543 79.8893C168.908 79.8893 171.41 74.262 173.961 66.3994C175.889 60.6696 178.596 49.7308 180.835 41.4499H186.877C187.033 41.4499 187.086 41.294 186.979 41.294H180.885L182.082 36.971C185.105 27.3858 187.55 24.9372 189.531 24.9372C190.782 24.9372 191.147 25.4048 191.147 26.5532C191.147 27.3325 190.207 28.4276 190.207 29.5227C190.207 30.5111 190.831 31.2945 192.291 31.2945C193.591 31.2945 194.686 30.3061 194.686 28.5875M167.288 63.434C167.391 63.434 167.391 63.2248 167.288 63.2248H164.425C164.163 63.2248 164.06 63.1715 164.06 63.0156V41.3966C164.06 41.294 164.06 41.2407 163.958 41.2407H156.768C156.665 41.2407 156.665 41.4499 156.768 41.4499H159.631C159.84 41.4499 159.942 41.5032 159.942 41.6591V63.0156C159.942 63.1715 159.84 63.2248 159.631 63.2248H156.768C156.665 63.2248 156.665 63.434 156.768 63.434H167.288ZM164.737 27.8041C164.737 26.2948 163.486 25.0972 161.977 25.0972C160.467 25.0972 159.27 26.2948 159.27 27.8041C159.27 29.3135 160.467 30.5645 161.977 30.5645C163.486 30.5645 164.737 29.3135 164.737 27.8041ZM154.528 63.2781V52.4953C154.528 52.3927 154.319 52.3927 154.319 52.4953C154.319 57.8067 151.871 63.2248 143.799 63.2248H137.027C136.818 63.2248 136.715 63.1715 136.715 63.0156V26.9182C136.715 26.8157 136.818 26.709 137.027 26.709H141.715C141.818 26.709 141.818 26.4999 141.715 26.4999H125.986C125.883 26.4999 125.883 26.709 125.986 26.709H130.674C130.883 26.709 130.986 26.8116 130.986 26.9182V63.0156C130.986 63.1715 130.883 63.2248 130.674 63.2248H125.986C125.883 63.2248 125.883 63.434 125.986 63.434H154.372C154.475 63.434 154.528 63.3807 154.528 63.2781ZM116.425 41.454C116.528 41.454 116.528 41.2448 116.425 41.2448H109.756C109.654 41.2448 109.654 41.454 109.756 41.454H112.57C112.882 41.454 112.935 41.6098 112.205 43.6401L106.475 59.111L98.8708 41.6632C98.8175 41.5073 98.8708 41.454 99.1292 41.454H101.836C101.939 41.454 101.939 41.2448 101.836 41.2448H91.6809C91.525 41.2448 91.525 41.454 91.6809 41.454H94.1295C94.3386 41.454 94.4945 41.5073 94.5478 41.6632L104.756 64.0082L100.331 75.8862C99.3425 78.5932 98.4032 79.3233 97.7265 79.3233C96.8939 79.3233 96.1638 79.1674 96.1638 78.6465C96.1638 77.6047 97.1523 77.293 97.1523 76.1446C97.1523 75.1561 96.4222 74.3194 95.0687 74.3194C93.7152 74.3194 92.6734 75.517 92.6734 77.133C92.6734 79.0074 94.2894 80 96.373 80C98.4566 80 99.445 78.9049 100.593 75.7795L112.418 43.6401C113.148 41.6591 113.304 41.454 113.669 41.454H116.429H116.425ZM87.3046 40.7116C87.3046 47.4586 84.1669 50.2722 79.7127 50.2722C77.6988 50.2722 76.009 50.1328 74.6063 49.5217V30.5932C74.6063 30.4988 74.7006 30.4045 74.8893 30.4045H79.1056C83.605 30.4045 87.3046 33.9195 87.3046 40.7116ZM92.3658 40.7116C92.3658 34.9941 87.6819 30.2158 79.1056 30.2158H64.9554C64.8611 30.2158 64.8611 30.4045 64.9554 30.4045H69.1718C69.3604 30.4045 69.4507 30.4988 69.4507 30.5932V63.0649C69.4507 63.2043 69.3563 63.2535 69.1718 63.2535H64.9554C64.8611 63.2535 64.8611 63.4422 64.9554 63.4422H79.1056C79.2 63.4422 79.2 63.2535 79.1056 63.2535H74.8893C74.7006 63.2535 74.6063 63.2084 74.6063 63.0649V49.899C75.9188 50.2271 77.6537 50.4609 79.7127 50.4609C87.2102 50.4609 92.3617 46.384 92.3617 40.7157M60.5176 52.5035C60.5176 57.8149 59.6316 61.0469 57.8598 62.5563C56.818 63.4422 55.202 63.7006 53.8485 63.7006C51.8183 63.7006 49.7347 62.7613 49.0046 60.8336V43.2258C50.2023 41.7165 51.9208 40.9864 53.8485 40.9864C55.202 40.9864 56.818 41.2489 57.8598 42.1307C59.6316 43.6401 60.5176 47.1838 60.5176 52.4953M64.6847 52.4953C64.6847 46.7121 59.8408 40.7772 53.8485 40.7772C51.7649 40.7772 50.2023 41.5565 49.0046 42.8608V41.4007C49.0046 41.3473 49.0046 41.2448 48.9021 41.2448H41.7121C41.6096 41.2448 41.6096 41.454 41.7121 41.454H44.5791C44.7883 41.454 44.8908 41.5565 44.8908 41.6632V79.1674C44.8908 79.2699 44.7883 79.3233 44.5791 79.3233H41.7121C41.6096 79.3233 41.6096 79.5324 41.7121 79.5324H52.2325C52.3351 79.5324 52.3351 79.3233 52.2325 79.3233H49.3656C49.1072 79.3233 49.0005 79.2699 49.0005 79.1674V61.8221C50.1982 63.1223 51.7608 63.9057 53.8444 63.9057C59.8326 63.9057 64.6806 58.2784 64.6806 52.4994M36.13 71.1161C36.13 72.445 34.4812 73.6263 32.7216 73.6263C31.6101 73.6263 30.1049 73.2325 30.1049 70.1482C30.1049 66.8465 31.3968 65.9523 32.5781 65.7021C33.6199 65.5217 35.3384 65.5217 36.13 64.9844V71.1161ZM41.2938 72.5147C41.3307 72.445 41.1871 72.4081 41.1871 72.4778C41.0436 72.8018 40.5432 73.3761 39.8952 73.3761C39.3579 73.3761 38.9641 73.0192 38.9641 72.1907V64.4799C38.9641 59.9969 36.9913 57.9872 33.3328 57.9872C30.5355 57.9872 29.1369 59.5294 29.1369 60.7147C29.1369 61.4694 29.5307 62.2569 30.5355 62.2569C31.6101 62.2569 32.0408 61.6457 32.0408 61.0387C32.0408 60.5014 31.7906 60.3209 31.7906 59.7467C31.7906 58.5983 32.4345 58.1307 33.3328 58.1307C34.6247 58.1307 36.13 58.9182 36.13 61.7893V64.5168C36.13 65.2715 33.8701 65.415 31.8972 65.5914C30.4986 65.7349 27.3404 66.3789 27.3404 70.1482C27.3404 72.9823 29.707 73.8805 32.0736 73.8805C33.9726 73.8805 35.8388 73.1259 36.3064 71.5837C36.5565 72.9085 37.3809 73.8805 38.9231 73.8805C40.252 73.8805 41.1133 73.1628 41.2897 72.5188M25.7327 63.4422C25.8352 63.4422 25.8352 63.233 25.7327 63.233H22.8657C22.6032 63.233 22.5007 63.1797 22.5007 63.0238V49.4806C22.5007 43.9067 19.2728 40.7813 13.9572 40.7813C11.6111 40.7813 9.01079 41.8764 8.07154 44.8459V25.3145C8.07154 25.212 8.01822 25.1587 7.91568 25.1587H0.79956C0.697022 25.1587 0.697022 25.3679 0.79956 25.3679H3.66652C3.87569 25.3679 3.97823 25.4212 3.97823 25.577V63.0279C3.97823 63.1838 3.87569 63.2371 3.66652 63.2371H0.79956C0.697022 63.2371 0.697022 63.4463 0.79956 63.4463H11.2707C11.3733 63.4463 11.3733 63.2371 11.2707 63.2371H8.40376C8.19459 63.2371 8.09205 63.1838 8.09205 63.0279V45.3709C8.82212 42.9756 10.594 40.9946 13.9777 40.9946C15.7496 40.9946 18.4032 42.6106 18.4032 46.3061V63.0279C18.4032 63.1838 18.3007 63.2371 18.0915 63.2371H15.2287C15.1261 63.2371 15.1261 63.4463 15.2287 63.4463H25.7491L25.7327 63.4422ZM140.087 2.12458C140.087 0.89413 138.885 0.00820302 137.601 0.00820302C134.771 0.00820302 132.999 2.15329 132.999 8.4122V8.98231C132.999 9.06844 132.942 9.09715 132.799 9.09715H130.854C130.768 9.09715 130.768 9.212 130.854 9.212H132.799C132.942 9.212 132.999 9.24071 132.999 9.29813V21.049C132.999 21.1351 132.942 21.1638 132.799 21.1638H131.252C131.166 21.1638 131.166 21.2786 131.252 21.2786H136.998C137.056 21.2786 137.056 21.1638 136.998 21.1638H135.428C135.313 21.1638 135.255 21.1351 135.255 21.049V9.29813C135.255 9.24071 135.313 9.212 135.428 9.212H137.802C137.86 9.212 137.86 9.09715 137.802 9.09715H135.428C135.313 9.09715 135.255 9.06844 135.255 8.98231V3.54781C135.255 0.94745 136.199 0.176365 136.998 0.176365C137.597 0.176365 137.999 0.578313 137.999 1.11971C137.999 1.86209 137.655 1.83338 137.655 2.46501C137.655 3.00641 138.028 3.43707 138.856 3.43707C139.57 3.43707 140.087 2.80954 140.087 2.12048M132.167 2.12048C132.167 0.890028 130.965 0.00410151 129.677 0.00410151C126.847 0.00410151 125.075 2.14919 125.075 8.4081V8.97821C125.075 9.06434 125.018 9.09305 124.874 9.09305H122.93C122.844 9.09305 122.844 9.2079 122.93 9.2079H124.874C125.018 9.2079 125.075 9.23661 125.075 9.29403V21.0449C125.075 21.131 125.018 21.1597 124.874 21.1597H123.332C123.246 21.1597 123.246 21.2745 123.332 21.2745H129.078C129.136 21.2745 129.136 21.1597 129.078 21.1597H127.508C127.393 21.1597 127.335 21.131 127.335 21.0449V9.29403C127.335 9.23661 127.393 9.2079 127.508 9.2079H129.882C129.94 9.2079 129.94 9.09305 129.882 9.09305H127.508C127.393 9.09305 127.335 9.06434 127.335 8.97821V3.54371C127.335 0.943348 128.279 0.172264 129.078 0.172264C129.677 0.172264 130.079 0.574212 130.079 1.11561C130.079 1.85799 129.735 1.82927 129.735 2.46091C129.735 3.00231 130.108 3.43297 130.936 3.43297C131.65 3.43297 132.167 2.80543 132.167 2.11638M118.415 19.3017C118.415 20.3599 117.098 21.3033 115.699 21.3033C114.813 21.3033 113.612 20.9874 113.612 18.5306C113.612 15.9016 114.641 15.1838 115.584 14.9869C116.413 14.8434 117.787 14.8434 118.415 14.4168V19.3058V19.3017ZM122.532 20.4173C122.561 20.3599 122.446 20.3312 122.446 20.3886C122.331 20.647 121.93 21.1023 121.417 21.1023C120.986 21.1023 120.674 20.8152 120.674 20.1589V14.0108C120.674 10.4383 119.104 8.83466 116.187 8.83466C113.956 8.83466 112.841 10.0651 112.841 11.0085C112.841 11.6073 113.156 12.2389 113.956 12.2389C114.813 12.2389 115.158 11.7549 115.158 11.2669C115.158 10.8362 114.957 10.6967 114.957 10.2374C114.957 9.32274 115.47 8.9495 116.187 8.9495C117.217 8.9495 118.419 9.57703 118.419 11.8657V14.0395C118.419 14.6383 116.618 14.7531 115.047 14.8967C113.932 15.0115 111.417 15.5242 111.417 18.5265C111.417 20.7865 113.304 21.5001 115.191 21.5001C116.708 21.5001 118.193 20.9013 118.566 19.6709C118.767 20.729 119.423 21.5001 120.654 21.5001C121.712 21.5001 122.397 20.93 122.541 20.4132M110.417 19.0146C110.417 18.9572 110.33 18.9285 110.302 18.9572C109.957 20.3599 109.186 21.1023 108.415 21.1023C107.902 21.1023 107.587 20.8152 107.587 20.2738V9.32274C107.587 9.26532 107.644 9.2079 107.788 9.2079H110.134C110.22 9.2079 110.22 9.09305 110.134 9.09305H107.788C107.644 9.09305 107.587 9.06434 107.587 9.00692V4.37631C107.587 4.31889 107.5 4.31889 107.472 4.37631C107.213 5.17611 106.471 5.52064 105.327 5.6929V9.01102C105.327 9.06844 105.269 9.09715 105.154 9.09715H103.182C103.124 9.09715 103.124 9.212 103.182 9.212H105.154C105.269 9.212 105.327 9.26942 105.327 9.32684V18.7316C105.327 20.5896 106.126 21.5329 107.673 21.5329C109.219 21.5329 110.047 20.4748 110.417 19.0187M102.525 17.534C102.525 15.7047 101.094 14.5317 98.9241 13.8467C96.8365 13.2192 95.7209 12.4153 95.7209 10.9305C95.7209 9.64266 96.5781 8.9577 97.9808 8.9577C99.3835 8.9577 100.926 9.95847 100.926 11.96C100.926 12.0174 101.041 12.0174 101.041 11.96V8.72802C101.041 8.69931 100.926 8.6706 100.926 8.72802C100.926 8.98641 100.725 9.12997 100.327 9.12997C99.0964 9.12997 98.9282 8.84286 97.9808 8.84286C96.2376 8.84286 94.6627 10.2456 94.6627 12.5014C94.6627 14.3881 96.0367 15.2453 97.9808 15.9016C99.9823 16.5865 101.241 17.3043 101.241 18.9039C101.241 20.5896 100.097 21.4181 98.5263 21.4181C96.0941 21.4181 94.2935 19.3878 94.3797 17.3002C94.3797 17.2428 94.2648 17.2428 94.2648 17.3002L94.1213 21.3033C94.1213 21.3607 94.2074 21.3894 94.2361 21.3033C94.2935 21.1023 94.7201 20.7619 95.2369 20.7619C96.3238 20.7619 96.9513 21.5329 98.5263 21.5329C101.241 21.5329 102.529 19.8472 102.529 17.5299M92.9523 21.2745C93.0098 21.2745 93.0098 21.1597 92.9523 21.1597H91.3815C91.2379 21.1597 91.1805 21.131 91.1805 21.0449V0.35273C91.1805 0.295309 91.1805 0.266598 91.1231 0.266598H87.1774C87.12 0.266598 87.12 0.381441 87.1774 0.381441H88.7483C88.8631 0.381441 88.9493 0.410151 88.9493 0.496283V21.0531C88.9493 21.1392 88.8631 21.1679 88.7483 21.1679H87.1774C87.12 21.1679 87.12 21.2827 87.1774 21.2827H92.9523V21.2745ZM82.5755 19.3017C82.5755 20.3599 81.2589 21.3033 79.8603 21.3033C78.9744 21.3033 77.7726 20.9874 77.7726 18.5306C77.7726 15.9016 78.8021 15.1838 79.7455 14.9869C80.574 14.8434 81.948 14.8434 82.5755 14.4168V19.3058V19.3017ZM86.6934 20.4173C86.7221 20.3599 86.6073 20.3312 86.6073 20.3886C86.4924 20.647 86.0905 21.1023 85.5778 21.1023C85.1513 21.1023 84.8354 20.8152 84.8354 20.1589V14.0108C84.8354 10.4383 83.2646 8.83466 80.3484 8.83466C78.1172 8.83466 77.0015 10.0651 77.0015 11.0085C77.0015 11.6073 77.3174 12.2389 78.1172 12.2389C78.9744 12.2389 79.3189 11.7549 79.3189 11.2669C79.3189 10.8362 79.1179 10.6967 79.1179 10.2374C79.1179 9.32274 79.6347 8.9495 80.3484 8.9495C81.3779 8.9495 82.5796 9.57703 82.5796 11.8657V14.0395C82.5796 14.6383 80.779 14.7531 79.2041 14.8967C78.0885 15.0115 75.5742 15.5242 75.5742 18.5265C75.5742 20.7865 77.4609 21.5001 79.3476 21.5001C80.8611 21.5001 82.3499 20.9013 82.7232 19.6709C82.9241 20.729 83.5804 21.5001 84.8108 21.5001C85.869 21.5001 86.554 20.93 86.6975 20.4132M77.1738 2.11638C77.1738 0.885927 75.9721 0 74.6842 0C71.8542 0 70.0823 2.14509 70.0823 8.404V8.97411C70.0823 9.06024 70.0249 9.08895 69.8813 9.08895H67.9372C67.8511 9.08895 67.8511 9.20379 67.9372 9.20379H69.8813C70.0249 9.20379 70.0823 9.2325 70.0823 9.28993V21.0408C70.0823 21.1269 70.0249 21.1556 69.8813 21.1556H68.3392C68.253 21.1556 68.253 21.2704 68.3392 21.2704H74.0854C74.1428 21.2704 74.1428 21.1556 74.0854 21.1556H72.5145C72.3997 21.1556 72.3422 21.1269 72.3422 21.0408V9.28993C72.3422 9.2325 72.3997 9.20379 72.5145 9.20379H74.8893C74.9467 9.20379 74.9467 9.08895 74.8893 9.08895H72.5145C72.3997 9.08895 72.3422 9.06024 72.3422 8.97411V3.53961C72.3422 0.939246 73.2856 0.168162 74.0854 0.168162C74.6842 0.168162 75.0861 0.57011 75.0861 1.11151C75.0861 1.85388 74.7416 1.82517 74.7416 2.45681C74.7416 2.99821 75.1149 3.42886 75.9434 3.42886C76.657 3.42886 77.1738 2.80133 77.1738 2.11228" fill="white"/>
</svg>
